<svg width="200" height="200" viewBox="0 0 200 200" xmlns="http://www.w3.org/2000/svg">
  <ellipse cx="100" cy="128" rx="68" ry="44" fill="#5DCAA5"/>
  <ellipse cx="58" cy="100" rx="38" ry="30" fill="#9FE1CB"/>
  <ellipse cx="145" cy="102" rx="34" ry="27" fill="#5DCAA5"/>
  <ellipse cx="100" cy="88" rx="42" ry="30" fill="#9FE1CB"/>
  <ellipse cx="68" cy="72" rx="26" ry="18" fill="#E1F5EE"/>
  <ellipse cx="130" cy="76" rx="22" ry="16" fill="#9FE1CB"/>
  <ellipse cx="100" cy="65" rx="18" ry="13" fill="#E1F5EE"/>
  <polygon points="72,45 82,24 100,34 118,24 128,45" fill="#EF9F27"/>
  <circle cx="100" cy="24" r="6" fill="#EF9F27"/>
  <circle cx="82" cy="116" r="12" fill="#fff"/>
  <circle cx="118" cy="116" r="12" fill="#fff"/>
  <circle cx="84" cy="116" r="6" fill="#085041"/>
  <circle cx="120" cy="116" r="6" fill="#085041"/>
  <path d="M86 142 Q100 155 114 142" fill="#fff"/>
  <circle cx="35" cy="75" r="5" fill="#EF9F27" opacity=".5"/>
  <circle cx="168" cy="68" r="4" fill="#EF9F27" opacity=".4"/>
  <circle cx="48" cy="50" r="3" fill="#EF9F27" opacity=".6"/>
  <circle cx="155" cy="48" r="3" fill="#EF9F27" opacity=".5"/>
  <circle cx="100" cy="172" r="3" fill="#EF9F27" opacity=".3"/>
</svg>