<svg width="200" height="200" viewBox="0 0 200 200" xmlns="http://www.w3.org/2000/svg">
  <ellipse cx="100" cy="125" rx="65" ry="42" fill="#fff"/>
  <ellipse cx="62" cy="102" rx="36" ry="28" fill="#fff"/>
  <ellipse cx="140" cy="104" rx="32" ry="26" fill="#fff"/>
  <ellipse cx="100" cy="92" rx="38" ry="28" fill="#fff"/>
  <ellipse cx="72" cy="76" rx="24" ry="17" fill="#fff"/>
  <ellipse cx="125" cy="80" rx="20" ry="14" fill="#fff"/>
  <rect x="48" y="58" width="32" height="20" rx="8" fill="#2D4A3E" transform="rotate(-10 64 68)"/>
  <rect x="130" cy="115" width="24" height="30" rx="6" fill="#FF6B35" x="138" y="105"/>
  <line x1="138" y1="118" x2="162" y2="118" stroke="#D4836B" stroke-width="1.5"/>
  <circle cx="84" cy="118" r="9" fill="#378ADD"/>
  <circle cx="116" cy="118" r="9" fill="#378ADD"/>
  <circle cx="87" cy="116" r="3" fill="#fff"/>
  <circle cx="119" cy="116" r="3" fill="#fff"/>
  <path d="M93 136 Q100 144 107 136" fill="none" stroke="#378ADD" stroke-width="2.5" stroke-linecap="round"/>
  <ellipse cx="68" cy="130" rx="15" ry="7.5" fill="#FCCCC4" opacity=".4"/>
  <ellipse cx="132" cy="130" rx="15" ry="7.5" fill="#FCCCC4" opacity=".4"/>
</svg>