<svg width="200" height="200" viewBox="0 0 200 200" xmlns="http://www.w3.org/2000/svg">
  <ellipse cx="100" cy="128" rx="68" ry="44" fill="#EF9F27"/>
  <ellipse cx="58" cy="100" rx="38" ry="30" fill="#FAC775"/>
  <ellipse cx="145" cy="102" rx="34" ry="27" fill="#EF9F27"/>
  <ellipse cx="100" cy="88" rx="42" ry="30" fill="#FAC775"/>
  <ellipse cx="68" cy="72" rx="26" ry="18" fill="#FAEEDA"/>
  <ellipse cx="130" cy="76" rx="22" ry="16" fill="#FAC775"/>
  <ellipse cx="100" cy="65" rx="18" ry="13" fill="#FAEEDA"/>
  <polygon points="78,48 86,30 100,38 114,30 122,48" fill="#EF9F27" stroke="#BA7517" stroke-width="1.5"/>
  <circle cx="82" cy="116" r="11" fill="#fff"/>
  <circle cx="118" cy="116" r="11" fill="#fff"/>
  <circle cx="84" cy="116" r="5.5" fill="#633806"/>
  <circle cx="120" cy="116" r="5.5" fill="#633806"/>
  <path d="M88 140 Q100 152 112 140" fill="#fff"/>
  <ellipse cx="65" cy="130" rx="16" ry="8" fill="#FAEEDA" opacity=".4"/>
  <ellipse cx="135" cy="130" rx="16" ry="8" fill="#FAEEDA" opacity=".4"/>
</svg>