<svg width="200" height="200" viewBox="0 0 200 200" xmlns="http://www.w3.org/2000/svg">
  <ellipse cx="100" cy="128" rx="68" ry="44" fill="#fff"/>
  <ellipse cx="58" cy="100" rx="38" ry="30" fill="#fff"/>
  <ellipse cx="145" cy="102" rx="34" ry="27" fill="#fff"/>
  <ellipse cx="100" cy="88" rx="42" ry="30" fill="#fff"/>
  <ellipse cx="68" cy="72" rx="26" ry="18" fill="#fff"/>
  <ellipse cx="130" cy="76" rx="22" ry="16" fill="#fff"/>
  <ellipse cx="100" cy="65" rx="18" ry="13" fill="#fff"/>
  <path d="M40 52 Q60 32 80 42 Q90 30 108 42" fill="#2D4A3E"/>
  <rect x="148" y="95" width="30" height="38" rx="8" fill="#D4836B"/>
  <line x1="148" y1="110" x2="178" y2="110" stroke="#B8713A" stroke-width="2"/>
  <line x1="148" y1="120" x2="178" y2="120" stroke="#B8713A" stroke-width="1"/>
  <circle cx="82" cy="116" r="10" fill="#378ADD"/>
  <circle cx="118" cy="116" r="10" fill="#378ADD"/>
  <circle cx="85" cy="113.5" r="3.5" fill="#fff"/>
  <circle cx="121" cy="113.5" r="3.5" fill="#fff"/>
  <path d="M90 138 Q100 148 110 138" fill="#378ADD"/>
  <ellipse cx="65" cy="130" rx="16" ry="8" fill="#FCCCC4" opacity=".45"/>
  <ellipse cx="135" cy="130" rx="16" ry="8" fill="#FCCCC4" opacity=".45"/>
  <circle cx="55" cy="50" r="5" fill="#EF9F27" opacity=".5"/>
  <circle cx="148" cy="45" r="4" fill="#EF9F27" opacity=".4"/>
</svg>